<mxfile host="app.diagrams.net" modified="2021-02-13T01:47:02.749Z" agent="5.0 (Macintosh; Intel Mac OS X 11_1_0) AppleWebKit/537.36 (KHTML, like Gecko) Chrome/88.0.4324.96 Safari/537.36" etag="uAwJYhZ2i43aCp9T3LPb" version="14.3.1" type="github" pages="2">
  <diagram id="aDABKkMHzaQ7Ft_NV5Rm" name="Course Structure">
    <mxGraphModel dx="946" dy="621" grid="1" gridSize="10" guides="1" tooltips="1" connect="1" arrows="1" fold="1" page="1" pageScale="1" pageWidth="850" pageHeight="1100" math="0" shadow="1">
      <root>
        <mxCell id="0" />
        <mxCell id="1" parent="0" />
        <mxCell id="FhdxN6m3dHfvLrAjemN1-3" value="" style="group" parent="1" vertex="1" connectable="0">
          <mxGeometry x="100" y="120" width="640" height="100" as="geometry" />
        </mxCell>
        <mxCell id="MBJ84zXVosNjpP52FJyQ-3" value="" style="group;shadow=1;" parent="FhdxN6m3dHfvLrAjemN1-3" vertex="1" connectable="0">
          <mxGeometry width="210" height="100" as="geometry" />
        </mxCell>
        <mxCell id="MBJ84zXVosNjpP52FJyQ-1" value="" style="shape=hexagon;perimeter=hexagonPerimeter2;whiteSpace=wrap;html=1;fixedSize=1;" parent="MBJ84zXVosNjpP52FJyQ-3" vertex="1">
          <mxGeometry width="210" height="100" as="geometry" />
        </mxCell>
        <mxCell id="MBJ84zXVosNjpP52FJyQ-2" value="Data Structures" style="text;html=1;strokeColor=none;fillColor=none;align=center;verticalAlign=middle;whiteSpace=wrap;rounded=0;fontSize=20;" parent="MBJ84zXVosNjpP52FJyQ-3" vertex="1">
          <mxGeometry x="25" y="35" width="160" height="30" as="geometry" />
        </mxCell>
        <mxCell id="FhdxN6m3dHfvLrAjemN1-1" value="" style="shape=cross;whiteSpace=wrap;html=1;shadow=1;fontSize=20;" parent="FhdxN6m3dHfvLrAjemN1-3" vertex="1">
          <mxGeometry x="270" y="10" width="80" height="80" as="geometry" />
        </mxCell>
        <mxCell id="FhdxN6m3dHfvLrAjemN1-2" value="" style="group" parent="FhdxN6m3dHfvLrAjemN1-3" vertex="1" connectable="0">
          <mxGeometry x="390" width="250" height="100" as="geometry" />
        </mxCell>
        <mxCell id="MBJ84zXVosNjpP52FJyQ-4" value="" style="ellipse;shape=cloud;whiteSpace=wrap;html=1;shadow=1;fontSize=20;" parent="FhdxN6m3dHfvLrAjemN1-2" vertex="1">
          <mxGeometry width="250" height="100" as="geometry" />
        </mxCell>
        <mxCell id="MBJ84zXVosNjpP52FJyQ-6" value="Algorithms" style="text;html=1;strokeColor=none;fillColor=none;align=center;verticalAlign=middle;whiteSpace=wrap;rounded=0;shadow=1;fontSize=20;" parent="FhdxN6m3dHfvLrAjemN1-2" vertex="1">
          <mxGeometry x="30" y="30" width="200" height="40" as="geometry" />
        </mxCell>
        <mxCell id="FhdxN6m3dHfvLrAjemN1-7" value="&lt;b&gt;&lt;u&gt;Senior&lt;/u&gt;&lt;/b&gt; Frontend Engineer" style="text;html=1;strokeColor=none;fillColor=none;align=center;verticalAlign=middle;whiteSpace=wrap;rounded=0;shadow=1;fontSize=50;" parent="1" vertex="1">
          <mxGeometry x="112" y="40" width="620" height="20" as="geometry" />
        </mxCell>
        <mxCell id="EIC1_NiphJhUQ_3H3qbQ-1" value="Section 2" style="text;html=1;strokeColor=none;fillColor=none;align=center;verticalAlign=middle;whiteSpace=wrap;rounded=0;shadow=1;fontSize=25;" parent="1" vertex="1">
          <mxGeometry x="320" y="260" width="180" height="20" as="geometry" />
        </mxCell>
        <mxCell id="EIC1_NiphJhUQ_3H3qbQ-2" value="" style="rounded=0;whiteSpace=wrap;html=1;shadow=1;fontSize=25;" parent="1" vertex="1">
          <mxGeometry x="210" y="300" width="120" height="60" as="geometry" />
        </mxCell>
        <mxCell id="EIC1_NiphJhUQ_3H3qbQ-3" value="" style="ellipse;whiteSpace=wrap;html=1;shadow=1;fontSize=25;" parent="1" vertex="1">
          <mxGeometry x="490" y="290" width="120" height="80" as="geometry" />
        </mxCell>
        <mxCell id="lx8eUENcdSVOisWBj3MS-3" value="" style="shape=flexArrow;endArrow=classic;html=1;" edge="1" parent="1">
          <mxGeometry width="50" height="50" relative="1" as="geometry">
            <mxPoint x="90" y="380" as="sourcePoint" />
            <mxPoint x="90" y="700" as="targetPoint" />
          </mxGeometry>
        </mxCell>
        <mxCell id="lx8eUENcdSVOisWBj3MS-4" value="" style="shape=flexArrow;endArrow=classic;html=1;" edge="1" parent="1">
          <mxGeometry width="50" height="50" relative="1" as="geometry">
            <mxPoint x="710" y="360" as="sourcePoint" />
            <mxPoint x="710" y="680" as="targetPoint" />
          </mxGeometry>
        </mxCell>
        <mxCell id="lx8eUENcdSVOisWBj3MS-5" value="Music Notes (Sounds)" style="text;html=1;strokeColor=none;fillColor=none;align=center;verticalAlign=middle;whiteSpace=wrap;rounded=0;" vertex="1" parent="1">
          <mxGeometry x="40" y="350" width="90" height="20" as="geometry" />
        </mxCell>
        <mxCell id="lx8eUENcdSVOisWBj3MS-7" value="Music Theory" style="text;html=1;strokeColor=none;fillColor=none;align=center;verticalAlign=middle;whiteSpace=wrap;rounded=0;" vertex="1" parent="1">
          <mxGeometry x="660" y="330" width="100" height="20" as="geometry" />
        </mxCell>
      </root>
    </mxGraphModel>
  </diagram>
  <diagram id="Gh55axfkEm-xZD-oqk3l" name="Section Structure">
    <mxGraphModel dx="946" dy="621" grid="1" gridSize="10" guides="1" tooltips="1" connect="1" arrows="1" fold="1" page="1" pageScale="1" pageWidth="850" pageHeight="1100" math="0" shadow="0">
      <root>
        <mxCell id="_15LmRB4a6UN6HwErNP7-0" />
        <mxCell id="_15LmRB4a6UN6HwErNP7-1" parent="_15LmRB4a6UN6HwErNP7-0" />
        <mxCell id="99LPSad7TEHPeoKQ8huu-2" value="" style="edgeStyle=orthogonalEdgeStyle;rounded=0;orthogonalLoop=1;jettySize=auto;html=1;fontSize=20;" edge="1" parent="_15LmRB4a6UN6HwErNP7-1" target="99LPSad7TEHPeoKQ8huu-1">
          <mxGeometry relative="1" as="geometry">
            <mxPoint x="220" y="490" as="sourcePoint" />
          </mxGeometry>
        </mxCell>
        <mxCell id="99LPSad7TEHPeoKQ8huu-4" value="" style="edgeStyle=orthogonalEdgeStyle;rounded=0;orthogonalLoop=1;jettySize=auto;html=1;fontSize=20;" edge="1" parent="_15LmRB4a6UN6HwErNP7-1" source="99LPSad7TEHPeoKQ8huu-1" target="99LPSad7TEHPeoKQ8huu-3">
          <mxGeometry relative="1" as="geometry" />
        </mxCell>
        <mxCell id="99LPSad7TEHPeoKQ8huu-1" value="Coding Exercise" style="whiteSpace=wrap;html=1;fontSize=20;" vertex="1" parent="_15LmRB4a6UN6HwErNP7-1">
          <mxGeometry x="300" y="460" width="120" height="60" as="geometry" />
        </mxCell>
        <mxCell id="99LPSad7TEHPeoKQ8huu-3" value="Explanation" style="whiteSpace=wrap;html=1;fontSize=20;" vertex="1" parent="_15LmRB4a6UN6HwErNP7-1">
          <mxGeometry x="500" y="460" width="120" height="60" as="geometry" />
        </mxCell>
        <mxCell id="99LPSad7TEHPeoKQ8huu-7" value="" style="edgeStyle=orthogonalEdgeStyle;rounded=0;orthogonalLoop=1;jettySize=auto;html=1;fontSize=20;" edge="1" parent="_15LmRB4a6UN6HwErNP7-1" source="99LPSad7TEHPeoKQ8huu-5" target="99LPSad7TEHPeoKQ8huu-6">
          <mxGeometry relative="1" as="geometry" />
        </mxCell>
        <mxCell id="99LPSad7TEHPeoKQ8huu-5" value="Concept" style="whiteSpace=wrap;html=1;fontSize=20;" vertex="1" parent="_15LmRB4a6UN6HwErNP7-1">
          <mxGeometry x="100" y="460" width="120" height="60" as="geometry" />
        </mxCell>
        <mxCell id="99LPSad7TEHPeoKQ8huu-6" value="MDN = Senior" style="ellipse;whiteSpace=wrap;html=1;fontSize=20;" vertex="1" parent="_15LmRB4a6UN6HwErNP7-1">
          <mxGeometry x="100" y="590" width="120" height="80" as="geometry" />
        </mxCell>
      </root>
    </mxGraphModel>
  </diagram>
</mxfile>
